<?xml version="1.0" standalone="no"?>
<!DOCTYPE svg PUBLIC "-//W3C//DTD SVG 20010904//EN"
 "http://www.w3.org/TR/2001/REC-SVG-20010904/DTD/svg10.dtd">
<svg version="1.0" xmlns="http://www.w3.org/2000/svg"
 width="116.000000pt" height="101.000000pt" viewBox="0 0 116.000000 101.000000"
 preserveAspectRatio="xMidYMid meet">

<g transform="translate(0.000000,101.000000) scale(0.100000,-0.100000)"
fill="#124F81" stroke="none">
<path d="M122 918 c-14 -14 -17 -604 -4 -625 5 -7 40 -13 92 -15 l85 -3 5 -73
c5 -67 15 -91 42 -92 3 0 58 38 121 85 l115 85 175 0 c150 0 176 2 181 16 3 9
6 149 6 313 0 218 -3 300 -12 309 -17 17 -789 17 -806 0z m383 -158 l-7 -40
51 0 c47 0 51 2 57 28 11 49 13 52 49 52 l35 0 -6 -40 -7 -40 37 0 c39 0 45
-14 26 -51 -7 -13 -21 -19 -45 -19 -35 0 -37 -2 -50 -67 -6 -32 -6 -33 30 -33
35 0 36 -1 33 -32 -3 -31 -6 -33 -44 -36 -40 -3 -42 -5 -48 -43 -6 -37 -8 -39
-42 -39 l-37 0 7 40 6 40 -50 0 c-46 0 -50 -2 -56 -27 -11 -51 -13 -53 -50
-53 l-36 0 7 40 7 40 -36 0 c-29 0 -36 4 -36 19 0 40 11 51 50 51 35 0 39 3
45 33 4 17 9 40 11 50 4 14 -1 17 -29 17 -42 0 -47 5 -38 38 6 22 14 28 46 32
36 5 40 8 48 43 8 34 12 37 44 37 l35 0 -7 -40z"/>
<path d="M473 600 l-10 -50 52 0 52 0 10 50 10 50 -52 0 -52 0 -10 -50z"/>
</g>
</svg>
